<?xml version="1.0" encoding="UTF-8"?>
<svg id="Capa_1" data-name="Capa 1" xmlns="http://www.w3.org/2000/svg" viewBox="0 0 238.5 235">
  <defs>
    <style>
      .cls-1 {
        fill: #8d3fd1;
      }
    </style>
  </defs>
  <g>
    <path class="cls-1" d="M167.14,38.24c13.84-2.91,42.96-2.49,46.78,15.25,2.7,12.54-8,25.22-15.58,34.08,3.13,19.57-6.23,39.18-24.81,46.8-14.76,6.05-39.65,1.87-55.99,2.38-3.67.11-16.15,5.89-20.76,7.41-16.64,5.49-46.69,13.11-62.28,3.06-13.97-9.01-6.4-28.42,3.68-37.35l3.53,5.68c-8.13,11.66-9.62,23.63,7.26,26.57,23.42,4.09,60.44-12.36,81.8-22.39,20.71-9.73,63.56-33.65,71.97-55.51,7.65-19.89-16.98-19.63-29.75-19.27-.36-.11-4.71-4.8-5.21-5.45-.33-.43-.83-.54-.64-1.28ZM143.26,125.21c11.46.98,23.76,1.46,33.05-6.38,6.61-5.57,10.11-13.15,10.86-21.75l-18.36,12.97-25.54,15.17Z"/>
    <path class="cls-1" d="M106.73,120.85l-5.98,2.76c-6.92,2.81-20.95,8.29-28.04,8.66-5.29.28-15.63-5.22-19.7-8.64-25.8-21.69-15.72-64.39,16.87-72.25,15.92-45.05,80.89-44.77,97.07-.13,8.97,2.15,16.79,6.74,22.33,14.2-.81,1.39-7.6,8.63-8.51,8.47-4.02-4.87-8.52-8.78-14.76-10.42-2.72-.71-5.56-.85-8.29-1.52-1.96-4.23-3.23-8.7-5.57-12.77-11.52-20.09-39.11-25.63-57.55-11.49-7.89,6.05-12.25,14.88-14.93,24.3-2.72.6-5.44.84-8.12,1.68-18.34,5.79-26.71,26.96-16.75,43.62,3.8,6.36,13.88,13.51,21.45,13.51h30.48Z"/>
    <path class="cls-1" d="M112.5,48.25c15.88-1.25,17.44,22.67,2.82,24.58-16.66,2.19-19.46-23.27-2.82-24.58Z"/>
    <path class="cls-1" d="M54.51,48.56s-.22-5.07-3.57-8.57c-3.35-3.5-9.29-3.31-9.29-4.29,0-.37,6.43-1.43,8.57-3.57s3.49-9.09,3.57-9.28c.06-.15,2.14,7.14,3.57,8.57s9.33,4.16,9.29,4.28c0,0,0,0,0,0-.71,0-6.3,2.02-7.86,3.57-2.14,2.14-4.29,9.29-4.29,9.29Z"/>
    <path class="cls-1" d="M84.6,81.28c8.3-.07,7.98,12.67-.07,12.67-8.02,0-8.64-12.59.07-12.67Z"/>
  </g>
  <g>
    <path class="cls-1" d="M24.65,185.12c-.54,0-1.14.42-1.14,1.5,0,22.38,8.22,22.56,8.22,25.32,0,1.26-.6,1.98-1.74,1.98-1.92,0-4.08-.18-6-.18-3.06,0-5.4.18-6.72.18-.9,0-1.5-.72-1.5-1.8,0-2.58,4.14-3.54,4.14-24.84,0-7.2-.36-7.56-2.04-7.56-.72,0-1.2.18-1.68.18-1.02,0-1.56-.84-1.56-1.92,0-.96.54-1.86,1.56-1.86,2.94,0,6.24.24,9.48.24,2.52,0,5.88-.24,8.4-.24,1.8,0,2.16,1.2,2.52,3.12,1.56,8.16,5.58,14.46,9.36,21.72.36.72,1.14.9,1.68.9.6,0,1.2-.48,1.2-1.5,0-17.88-7.26-19.08-7.26-22.26,0-1.08.84-1.98,2.22-1.98,1.86.12,3.66.18,5.28.18,2.04,0,3.96-.06,5.58-.18,1.38,0,2.1.9,2.1,2.04,0,2.4-4.68,4.8-4.68,18.36,0,4.08.9,12.54.9,14.64,0,1.92-.48,2.76-2.22,2.76-1.32,0-2.94-.24-4.38-.24-1.68,0-3.36.24-4.8.24-1.68,0-2.4-.72-3.18-2.22-5.46-10.56-10.26-22.86-12.48-25.98-.3-.42-.78-.6-1.26-.6Z"/>
    <path class="cls-1" d="M74.09,214.82c-8.64,0-16.38-3.66-16.38-16.5s7.08-18,16.74-18c10.38,0,13.5,4.98,13.5,10.5s-2.4,8.64-14.58,8.64c-2.22,0-3.84.42-3.84,2.22,0,2.88,2.46,4.74,7.74,4.74,4.68,0,8.04-1.32,8.04-4.92,0-1.2.78-1.68,1.44-1.68.78,0,1.44.48,1.44,1.68,0,9.54-3.72,13.32-14.1,13.32ZM88.55,171.74c0-2.22-1.5-3.78-4.08-3.78-5.82,0-9.24,6.18-13.44,6.18-2.16,0-3.18-.78-4.2-.78-1.2,0-1.8.66-1.8,1.86,0,1.56,1.14,2.34,5.28,2.34,12.18,0,18.24-1.14,18.24-5.82ZM68.87,192.44c0,.96.12,1.8.24,2.28.3,1.2,1.26,1.56,2.4,1.56,2.1,0,6.9-.96,6.9-7.2,0-2.58-.9-4.86-4.02-4.86-4.02,0-5.52,2.52-5.52,8.22Z"/>
    <path class="cls-1" d="M116.21,180.62c7.86,0,10.2,4.74,10.2,16.62s-4.8,16.92-12.66,16.92-11.64-4.86-14.22-4.86c-1.32,0-2.04.54-2.04,1.44,0,.66.12,1.38.12,1.68,0,1.14-.78,1.62-2.04,1.62s-1.98-.72-1.98-1.62c0-.72.48-9.48.48-18.72,0-4.14,0-8.7-.18-13.32-.06-1.8-.3-2.64-1.44-2.64-.24,0-.78.06-1.14.06-1.08,0-1.62-.48-1.62-1.92s.78-1.92,1.86-1.92c5.7,0,9.12-1.86,12.36-1.86,1.5,0,1.92.84,1.92,2.46,0,3.3-2.7,9.12-2.7,14.64,0,.66.3,1.08.96,1.08.72,0,.84-.36.96-.84,1.38-5.76,4.02-8.82,11.16-8.82ZM114.95,196.7c0-6.18-.72-8.76-3.9-8.76-3.48,0-5.46,3.3-5.46,10.74v4.98c0,3.42.9,6.06,4.32,6.06,3.78,0,5.04-1.92,5.04-13.02Z"/>
    <path class="cls-1" d="M159.83,213.68c-1.44,0-2.76.24-4.14.24-1.02,0-1.62-.54-1.62-1.86,0-1.86.48-4.14.48-6.42,0-.66-.42-.96-.9-.96-.6,0-.9.3-1.02.96-1.08,5.64-5.1,8.88-11.46,8.88-7.32,0-9.48-3.36-9.48-11.28,0-3.78,1.26-9.78,1.26-14.82,0-3.06-.24-3.66-1.2-3.66-.72,0-1.14.06-1.44.06-1.56,0-1.8-.96-1.8-1.86s.24-1.74,1.8-1.74c1.2,0,4.02.3,6.36.3,1.62,0,3.36-.3,5.1-.3,1.5,0,2.52.24,2.52,2.52,0,3.36-1.2,10.62-1.2,17.76,0,3.6.84,5.34,3.42,5.34,3.3,0,5.58-4.14,5.58-11.28v-7.2c0-2.34-.3-3.54-1.86-3.54-.36,0-.84.12-1.02.12-1.14,0-1.62-.96-1.62-1.86,0-1.26.48-1.86,1.62-1.86,2.04,0,4.44.24,6.48.24,2.22,0,4.44-.24,6.66-.24,1.14,0,1.8.42,1.8,1.5,0,2.22-.3,8.4-.3,14.94,0,2.94-.06,6.24.12,9.12.12,2.4.12,3.42,1.38,3.42.24,0,.54-.06.66-.06,1.14,0,1.62.96,1.62,1.98,0,.9-.48,1.8-1.62,1.8-.6,0-3.84-.24-6.18-.24Z"/>
    <path class="cls-1" d="M169.01,212.12c0-.96.48-1.92,1.44-1.92.12,0,.54.06,1.02.06.96,0,1.14-.9,1.2-2.7.12-4.68.18-9.24.18-13.92,0-4.14-.06-8.34-.18-12.42-.06-2.46-.3-3.54-1.56-3.54-.3,0-1.02.12-1.38.12-.78,0-1.32-.78-1.32-1.8,0-1.44.72-2.04,1.62-2.04,5.82,0,9.72-1.86,12.96-1.86,1.26,0,1.62.66,1.62,1.8,0,2.58-.48,9.72-.48,19.68,0,4.8.06,10.86.18,14.1.06,1.86.24,2.58,1.2,2.58.3,0,.72-.06.9-.06.9,0,1.62.66,1.62,1.86,0,1.08-.48,1.86-1.62,1.86-1.32,0-6.06-.12-8.94-.12-3.06,0-6.12.12-7.02.12-.96,0-1.44-.9-1.44-1.8Z"/>
    <path class="cls-1" d="M220.07,191.6c0,4.86-.24,10.26-.24,12,0,1.98.72,2.94,1.92,2.94,1.5,0,1.98-1.14,1.98-2.88,0-1.44-1.14-3.6-1.14-4.86,0-1.02.54-1.92,1.74-1.92,1.8,0,2.22,1.2,2.22,5.94,0,8.82-2.34,11.7-8.16,11.7-5.04,0-6.3-2.76-7.02-6.42-.18-.96-.42-1.44-1.08-1.44-.78,0-1.02.48-1.14,1.44-.36,3.42-3.54,6.42-10.08,6.42s-8.94-3.36-8.94-8.22c0-6.72,4.92-8.34,10.74-9.12,8.28-1.14,9.06-1.86,9.06-7.26,0-4.26-2.34-5.64-6.78-5.64-2.52,0-2.88.72-2.88,1.5,0,.54.42,1.08,1.5,1.32,1.62.36,2.88,1.2,2.88,3.3,0,2.94-2.34,4.56-6.6,4.56s-6.66-1.86-6.66-5.7c0-4.68,4.5-8.64,15.6-8.64s13.08,4.38,13.08,10.98ZM200.15,203.54c0,2.34,1.74,2.94,3.78,2.94,3.3,0,5.94-2.4,5.94-5.82,0-.96-.36-1.8-1.56-1.8-4.68,0-8.16,1.98-8.16,4.68Z"/>
  </g>
</svg>